<?xml version="1.0" encoding="iso-8859-1"?>
<!-- Generator: Adobe Illustrator 19.0.0, SVG Export Plug-In . SVG Version: 6.00 Build 0)  -->
<svg version="1.1" id="Layer_1" xmlns="http://www.w3.org/2000/svg" xmlns:xlink="http://www.w3.org/1999/xlink" x="0px" y="0px"
	 viewBox="0 0 511.999 511.999" style="enable-background:new 0 0 511.999 511.999;" xml:space="preserve">
<path style="fill:#328777;" d="M411.792,53.333v430.252c0,12.235-10.011,22.246-22.246,22.246H126.058
	c-12.235,0-22.246-10.011-22.246-22.246V53.333"/>
<path style="fill:#4BCDB2;" d="M389.546,468.876H126.058c-12.235,0-22.246-10.011-22.246-22.246V31.244
	c0-12.235,10.011-22.246,22.246-22.246h263.487c12.235,0,22.246,10.011,22.246,22.246V446.63
	C411.792,458.865,401.781,468.876,389.546,468.876z"/>
<path style="fill:#D3FDF9;" d="M365.247,162.193H150.357c-7.034,0-12.788-5.755-12.788-12.788V90.044
	c0-7.034,5.755-12.788,12.788-12.788h214.888c7.034,0,12.788,5.755,12.788,12.788v59.362
	C378.035,156.439,372.28,162.193,365.247,162.193z"/>
<path style="fill:#328777;" d="M365.247,53.998h-74.37c-7.034,0-12.788-5.755-12.788-12.788l0,0c0-7.034,5.755-12.788,12.788-12.788
	h74.37c7.034,0,12.788,5.755,12.788,12.788l0,0C378.035,48.244,372.28,53.998,365.247,53.998z"/>
<g>
	<path style="fill:#FFEB99;" d="M166.383,233.87h-16.026c-7.034,0-12.788-5.755-12.788-12.788v-16.026
		c0-7.034,5.755-12.788,12.788-12.788h16.026c7.034,0,12.788,5.755,12.788,12.788v16.026
		C179.171,228.116,173.417,233.87,166.383,233.87z"/>
	<path style="fill:#FFEB99;" d="M232.671,233.87h-16.026c-7.034,0-12.788-5.755-12.788-12.788v-16.026
		c0-7.034,5.755-12.788,12.788-12.788h16.026c7.034,0,12.788,5.755,12.788,12.788v16.026
		C245.46,228.116,239.704,233.87,232.671,233.87z"/>
	<path style="fill:#FFEB99;" d="M298.959,233.87h-16.026c-7.034,0-12.788-5.755-12.788-12.788v-16.026
		c0-7.034,5.755-12.788,12.788-12.788h16.026c7.034,0,12.788,5.755,12.788,12.788v16.026
		C311.747,228.116,305.993,233.87,298.959,233.87z"/>
	<path style="fill:#FFEB99;" d="M365.247,233.87h-16.026c-7.034,0-12.788-5.755-12.788-12.788v-16.026
		c0-7.034,5.755-12.788,12.788-12.788h16.026c7.034,0,12.788,5.755,12.788,12.788v16.026
		C378.035,228.116,372.28,233.87,365.247,233.87z"/>
	<path style="fill:#FFEB99;" d="M166.383,301.229h-16.026c-7.034,0-12.788-5.755-12.788-12.788v-16.026
		c0-7.034,5.755-12.788,12.788-12.788h16.026c7.034,0,12.788,5.755,12.788,12.788v16.026
		C179.171,295.474,173.417,301.229,166.383,301.229z"/>
	<path style="fill:#FFEB99;" d="M232.671,301.229h-16.026c-7.034,0-12.788-5.755-12.788-12.788v-16.026
		c0-7.034,5.755-12.788,12.788-12.788h16.026c7.034,0,12.788,5.755,12.788,12.788v16.026
		C245.46,295.474,239.704,301.229,232.671,301.229z"/>
	<path style="fill:#FFEB99;" d="M298.959,301.229h-16.026c-7.034,0-12.788-5.755-12.788-12.788v-16.026
		c0-7.034,5.755-12.788,12.788-12.788h16.026c7.034,0,12.788,5.755,12.788,12.788v16.026
		C311.747,295.474,305.993,301.229,298.959,301.229z"/>
	<path style="fill:#FFEB99;" d="M365.247,301.229h-16.026c-7.034,0-12.788-5.755-12.788-12.788v-16.026
		c0-7.034,5.755-12.788,12.788-12.788h16.026c7.034,0,12.788,5.755,12.788,12.788v16.026
		C378.035,295.474,372.28,301.229,365.247,301.229z"/>
</g>
<g>
	<path style="fill:#FFD422;" d="M166.383,368.588h-16.026c-7.034,0-12.788-5.755-12.788-12.788v-16.027
		c0-7.034,5.755-12.788,12.788-12.788h16.026c7.034,0,12.788,5.755,12.788,12.788v16.026
		C179.171,362.833,173.417,368.588,166.383,368.588z"/>
	<path style="fill:#FFD422;" d="M232.671,368.588h-16.026c-7.034,0-12.788-5.755-12.788-12.788v-16.027
		c0-7.034,5.755-12.788,12.788-12.788h16.026c7.034,0,12.788,5.755,12.788,12.788v16.026
		C245.46,362.833,239.704,368.588,232.671,368.588z"/>
	<path style="fill:#FFD422;" d="M298.959,368.588h-16.026c-7.034,0-12.788-5.755-12.788-12.788v-16.027
		c0-7.034,5.755-12.788,12.788-12.788h16.026c7.034,0,12.788,5.755,12.788,12.788v16.026
		C311.747,362.833,305.993,368.588,298.959,368.588z"/>
</g>
<path style="fill:#FFF5CC;" d="M365.247,435.946h-16.026c-7.034,0-12.788-5.755-12.788-12.788v-83.385
	c0-7.034,5.755-12.788,12.788-12.788h16.026c7.034,0,12.788,5.755,12.788,12.788v83.385
	C378.035,430.191,372.28,435.946,365.247,435.946z"/>
<g>
	<path style="fill:#FFD422;" d="M166.383,435.946h-16.026c-7.034,0-12.788-5.755-12.788-12.788v-16.026
		c0-7.034,5.755-12.788,12.788-12.788h16.026c7.034,0,12.788,5.755,12.788,12.788v16.026
		C179.171,430.191,173.417,435.946,166.383,435.946z"/>
	<path style="fill:#FFD422;" d="M232.671,435.946h-16.026c-7.034,0-12.788-5.755-12.788-12.788v-16.026
		c0-7.034,5.755-12.788,12.788-12.788h16.026c7.034,0,12.788,5.755,12.788,12.788v16.026
		C245.46,430.191,239.704,435.946,232.671,435.946z"/>
	<path style="fill:#FFD422;" d="M298.959,435.946h-16.026c-7.034,0-12.788-5.755-12.788-12.788v-16.026
		c0-7.034,5.755-12.788,12.788-12.788h16.026c7.034,0,12.788,5.755,12.788,12.788v16.026
		C311.747,430.191,305.993,435.946,298.959,435.946z"/>
</g>
<polygon style="fill:#FFFFFF;" points="252.826,77.255 201.035,162.193 281.14,162.193 332.931,77.255 "/>
<g>
	<path style="fill:#50000F;" d="M387.743,0H124.257c-16.449,0-29.829,13.381-29.829,29.829v22.089v393.297v36.955
		c0,16.449,13.381,29.829,29.829,29.829h263.486c16.449,0,29.829-13.381,29.829-29.829v-36.955V51.918V29.829
		C417.573,13.381,404.191,0,387.743,0z M109.594,29.829c0-8.084,6.578-14.662,14.662-14.662h263.486
		c8.084,0,14.662,6.578,14.662,14.662v22.089v393.297c0,8.084-6.578,14.662-14.662,14.662H124.257
		c-8.084,0-14.662-6.578-14.662-14.662V51.918V29.829z M387.743,496.832H124.257c-8.084,0-14.662-6.578-14.662-14.662v-10.993
		c4.334,2.457,9.334,3.868,14.662,3.868h263.486c5.328,0,10.328-1.411,14.662-3.868v10.993
		C402.405,490.255,395.827,496.832,387.743,496.832z"/>
	<path style="fill:#50000F;" d="M148.554,168.363h47.605c0.005,0,0.01,0.001,0.015,0.001s0.01-0.001,0.016-0.001h80.073
		c0.005,0,0.01,0.001,0.015,0.001s0.01-0.001,0.016-0.001h87.151c11.232,0,20.371-9.139,20.371-20.372V88.629
		c0-11.233-9.139-20.372-20.371-20.372H148.554c-11.232,0-20.371,9.139-20.371,20.372v59.362
		C128.182,159.224,137.322,168.363,148.554,168.363z M314.57,83.424l-42.543,69.771h-62.34l42.543-69.771
		C252.229,83.424,314.57,83.424,314.57,83.424z M368.648,88.629v59.362c0,2.821-2.382,5.204-5.203,5.204h-73.652l42.543-69.771
		h31.109C366.265,83.424,368.648,85.808,368.648,88.629z M143.35,88.629c0-2.87,2.335-5.204,5.203-5.204h85.911l-42.543,69.771
		h-43.369c-2.821,0-5.203-2.383-5.203-5.204V88.629H143.35z"/>
	<path style="fill:#50000F;" d="M289.074,60.168h74.37c11.232,0,20.371-9.139,20.371-20.372s-9.139-20.372-20.371-20.372h-74.37
		c-11.233,0-20.372,9.139-20.372,20.372S277.84,60.168,289.074,60.168z M319.765,45V34.591h17.19V45H319.765z M368.648,39.796
		c0,2.821-2.382,5.204-5.203,5.204h-11.321V34.591h11.321C366.265,34.591,368.648,36.974,368.648,39.796z M289.074,34.591h15.524V45
		h-15.524c-2.821,0-5.204-2.383-5.204-5.204S286.253,34.591,289.074,34.591z"/>
	<path style="fill:#50000F;" d="M148.554,240.04h16.027c11.232,0,20.371-9.139,20.371-20.372v-16.027
		c0-11.233-9.139-20.371-20.371-20.371h-16.027c-11.232,0-20.371,9.139-20.371,20.371v16.027
		C128.182,230.901,137.322,240.04,148.554,240.04z M143.35,203.641c0-2.821,2.382-5.203,5.203-5.203h16.027
		c2.821,0,5.203,2.383,5.203,5.203v16.027c0,2.87-2.335,5.204-5.203,5.204h-16.027c-2.87,0-5.203-2.335-5.203-5.204L143.35,203.641
		L143.35,203.641z"/>
	<path style="fill:#50000F;" d="M230.867,183.27h-16.026c-11.233,0-20.372,9.139-20.372,20.371v16.027
		c0,11.233,9.139,20.372,20.372,20.372h16.026c11.233,0,20.372-9.139,20.372-20.372v-16.027
		C251.24,192.408,242.1,183.27,230.867,183.27z M236.074,219.668c0,2.821-2.383,5.204-5.204,5.204h-16.027
		c-2.821,0-5.204-2.383-5.204-5.204v-16.027c0-2.821,2.383-5.203,5.204-5.203h16.026c2.821,0,5.204,2.383,5.204,5.203
		L236.074,219.668L236.074,219.668z"/>
	<path style="fill:#50000F;" d="M297.157,183.27H281.13c-11.232,0-20.371,9.139-20.371,20.371v16.027
		c0,11.233,9.139,20.372,20.371,20.372h16.027c11.233,0,20.372-9.139,20.372-20.372v-16.027
		C317.529,192.408,308.39,183.27,297.157,183.27z M302.361,219.668c0,2.821-2.383,5.204-5.204,5.204H281.13
		c-2.821,0-5.203-2.383-5.203-5.204v-16.027c0-2.821,2.382-5.203,5.203-5.203h16.027c2.821,0,5.204,2.383,5.204,5.203
		L302.361,219.668L302.361,219.668z"/>
	<path style="fill:#50000F;" d="M363.444,183.27h-16.027c-11.233,0-20.372,9.139-20.372,20.371v16.027
		c0,11.233,9.139,20.372,20.372,20.372h16.027c11.232,0,20.371-9.139,20.371-20.372v-16.027
		C383.816,192.408,374.677,183.27,363.444,183.27z M368.648,219.668c0,2.821-2.382,5.204-5.203,5.204h-16.027
		c-2.821,0-5.204-2.383-5.204-5.204v-16.027c0-2.821,2.383-5.203,5.204-5.203h16.027c2.821,0,5.203,2.383,5.203,5.203V219.668z"/>
	<path style="fill:#50000F;" d="M148.554,307.398h16.027c11.232,0,20.371-9.139,20.371-20.372v-16.027
		c0-11.233-9.139-20.372-20.371-20.372h-16.027c-11.232,0-20.371,9.139-20.371,20.372v16.027
		C128.182,298.259,137.322,307.398,148.554,307.398z M143.35,271c0-2.821,2.382-5.204,5.203-5.204h16.027
		c2.821,0,5.203,2.383,5.203,5.204v16.027c0,2.821-2.382,5.204-5.203,5.204h-16.027c-2.821,0-5.203-2.383-5.203-5.204L143.35,271
		L143.35,271z"/>
	<path style="fill:#50000F;" d="M230.867,250.628h-16.026c-11.233,0-20.372,9.139-20.372,20.372v16.027
		c0,11.233,9.139,20.372,20.372,20.372h16.026c11.233,0,20.372-9.139,20.372-20.372V271
		C251.24,259.767,242.1,250.628,230.867,250.628z M236.074,287.026c0,2.821-2.383,5.204-5.204,5.204h-16.027
		c-2.821,0-5.204-2.383-5.204-5.204v-16.027c0-2.821,2.383-5.204,5.204-5.204h16.026c2.821,0,5.204,2.383,5.204,5.204
		L236.074,287.026L236.074,287.026z"/>
	<path style="fill:#50000F;" d="M297.157,250.628H281.13c-11.232,0-20.371,9.139-20.371,20.372v16.027
		c0,11.233,9.139,20.372,20.371,20.372h16.027c11.233,0,20.372-9.139,20.372-20.372V271
		C317.529,259.767,308.39,250.628,297.157,250.628z M302.361,287.026c0,2.821-2.383,5.204-5.204,5.204H281.13
		c-2.821,0-5.203-2.383-5.203-5.204v-16.027c0-2.821,2.382-5.204,5.203-5.204h16.027c2.821,0,5.204,2.383,5.204,5.204
		L302.361,287.026L302.361,287.026z"/>
	<path style="fill:#50000F;" d="M363.444,250.628h-16.027c-11.233,0-20.372,9.139-20.372,20.372v16.027
		c0,11.233,9.139,20.372,20.372,20.372h16.027c11.232,0,20.371-9.139,20.371-20.372V271
		C383.816,259.767,374.677,250.628,363.444,250.628z M368.648,287.026c0,2.821-2.382,5.204-5.203,5.204h-16.027
		c-2.821,0-5.204-2.383-5.204-5.204v-16.027c0-2.821,2.383-5.204,5.204-5.204h16.027c2.821,0,5.203,2.383,5.203,5.204V287.026z"/>
	<path style="fill:#50000F;" d="M148.554,374.757h16.027c11.232,0,20.371-9.139,20.371-20.371v-16.027
		c0-11.233-9.139-20.372-20.371-20.372h-16.027c-11.232,0-20.371,9.139-20.371,20.372v16.027
		C128.182,365.618,137.322,374.757,148.554,374.757z M143.35,338.359c0-2.87,2.335-5.204,5.203-5.204h16.027
		c2.87,0,5.203,2.335,5.203,5.204v16.027c0,2.821-2.382,5.203-5.203,5.203h-16.027c-2.821,0-5.203-2.383-5.203-5.203L143.35,338.359
		L143.35,338.359z"/>
	<path style="fill:#50000F;" d="M230.867,317.987h-16.026c-11.233,0-20.372,9.139-20.372,20.372v16.027
		c0,11.233,9.139,20.371,20.372,20.371h16.026c11.233,0,20.372-9.139,20.372-20.371v-16.027
		C251.24,327.126,242.1,317.987,230.867,317.987z M236.074,354.385c0,2.821-2.383,5.203-5.204,5.203h-16.027
		c-2.821,0-5.204-2.383-5.204-5.203v-16.027c0-2.821,2.383-5.204,5.204-5.204h16.026c2.821,0,5.204,2.383,5.204,5.204
		L236.074,354.385L236.074,354.385z"/>
	<path style="fill:#50000F;" d="M297.157,317.987H281.13c-11.232,0-20.371,9.139-20.371,20.372v16.027
		c0,11.233,9.139,20.371,20.371,20.371h16.027c11.233,0,20.372-9.139,20.372-20.371v-16.027
		C317.529,327.126,308.39,317.987,297.157,317.987z M302.361,354.385c0,2.821-2.383,5.203-5.204,5.203H281.13
		c-2.821,0-5.203-2.383-5.203-5.203v-16.027c0-2.821,2.382-5.204,5.203-5.204h16.027c2.821,0,5.204,2.383,5.204,5.204
		L302.361,354.385L302.361,354.385z"/>
	<path style="fill:#50000F;" d="M363.444,317.987h-16.027c-11.233,0-20.372,9.139-20.372,20.372v83.385
		c0,11.233,9.139,20.372,20.372,20.372h16.027c11.232,0,20.371-9.139,20.371-20.372v-83.385
		C383.816,327.126,374.677,317.987,363.444,317.987z M368.648,421.743c0,2.821-2.382,5.204-5.203,5.204h-16.027
		c-2.821,0-5.204-2.383-5.204-5.204v-83.385c0-2.821,2.383-5.204,5.204-5.204h16.027c2.821,0,5.203,2.383,5.203,5.204V421.743z"/>
	<path style="fill:#50000F;" d="M148.554,442.115h16.027c11.232,0,20.371-9.139,20.371-20.372v-16.026
		c0-11.233-9.139-20.372-20.371-20.372h-16.027c-11.232,0-20.371,9.139-20.371,20.372v16.026
		C128.182,432.976,137.322,442.115,148.554,442.115z M143.35,405.717c0-2.87,2.335-5.204,5.203-5.204h16.027
		c2.87,0,5.203,2.335,5.203,5.204v16.026c0,2.87-2.335,5.204-5.203,5.204h-16.027c-2.87,0-5.203-2.335-5.203-5.204L143.35,405.717
		L143.35,405.717z"/>
	<path style="fill:#50000F;" d="M230.867,385.345h-16.026c-11.233,0-20.372,9.139-20.372,20.372v16.026
		c0,11.233,9.139,20.372,20.372,20.372h16.026c11.233,0,20.372-9.139,20.372-20.372v-16.026
		C251.24,394.484,242.1,385.345,230.867,385.345z M236.074,421.743c0,2.821-2.383,5.204-5.204,5.204h-16.027
		c-2.821,0-5.204-2.383-5.204-5.204v-16.026c0-2.821,2.383-5.204,5.204-5.204h16.026c2.821,0,5.204,2.383,5.204,5.204
		L236.074,421.743L236.074,421.743z"/>
	<path style="fill:#50000F;" d="M297.157,385.345H281.13c-11.232,0-20.371,9.139-20.371,20.372v16.026
		c0,11.233,9.139,20.372,20.371,20.372h16.027c11.233,0,20.372-9.139,20.372-20.372v-16.026
		C317.529,394.484,308.39,385.345,297.157,385.345z M302.361,421.743c0,2.821-2.383,5.204-5.204,5.204H281.13
		c-2.821,0-5.203-2.383-5.203-5.204v-16.026c0-2.821,2.382-5.204,5.203-5.204h16.027c2.821,0,5.204,2.383,5.204,5.204
		L302.361,421.743L302.361,421.743z"/>
</g>
<g>
</g>
<g>
</g>
<g>
</g>
<g>
</g>
<g>
</g>
<g>
</g>
<g>
</g>
<g>
</g>
<g>
</g>
<g>
</g>
<g>
</g>
<g>
</g>
<g>
</g>
<g>
</g>
<g>
</g>
</svg>
